<?xml version="1.0" encoding="utf-8"?>
<!-- Generator: Adobe Illustrator 23.1.0, SVG Export Plug-In . SVG Version: 6.00 Build 0)  -->
<svg version="1.1" xmlns="http://www.w3.org/2000/svg" xmlns:xlink="http://www.w3.org/1999/xlink" x="0px" y="0px"
	 viewBox="0 0 1033.7 1033.7" style="enable-background:new 0 0 1033.7 1033.7;" xml:space="preserve">
<style type="text/css">
	.st0{fill:#706D6E;}
	.st1{fill:#F1511B;}
	.st2{fill:#80CC28;}
	.st3{fill:#00ADEF;}
	.st4{fill:#FBBC09;}
	.st5{display:none;}
	.st6{display:inline;fill-rule:evenodd;clip-rule:evenodd;fill:#FF9900;}
	.st7{display:inline;fill-rule:evenodd;clip-rule:evenodd;}
	.st8{display:inline;}
	.st9{fill:url(#SVGID_1_);}
	.st10{fill:url(#SVGID_2_);}
	.st11{fill:url(#SVGID_3_);}
	.st12{fill:url(#SVGID_4_);}
	.st13{fill:url(#SVGID_5_);}
	.st14{fill:url(#SVGID_6_);}
	.st15{display:inline;fill:#FF5A5F;}
</style>
<g id="Layer_1">
	<path class="st0" d="M1033.7,506.4v-18.2h-22.6v-28.3l-0.8,0.2l-21.2,6.5l-0.4,0.1v21.4h-33.5v-11.9c0-5.6,1.2-9.8,3.7-12.6
		c2.4-2.8,5.9-4.2,10.3-4.2c3.2,0,6.5,0.8,9.8,2.2l0.8,0.4v-19.1l-0.4-0.1c-3.1-1.1-7.3-1.7-12.5-1.7c-6.6,0-12.6,1.4-17.8,4.3
		c-5.2,2.8-9.3,6.9-12.2,12.1c-2.9,5.2-4.3,11.1-4.3,17.7v13.1H917v18.2h15.7V583h22.6v-76.6h33.5V555c0,20,9.5,30.2,28.1,30.2
		c3.1,0,6.3-0.4,9.6-1.1c3.4-0.7,5.6-1.4,7-2.2l0.3-0.2v-18.3l-0.9,0.6c-1.2,0.8-2.8,1.5-4.5,2c-1.8,0.5-3.3,0.8-4.5,0.8
		c-4.4,0-7.6-1.2-9.6-3.5c-2-2.3-3.1-6.4-3.1-12.2v-44.7H1033.7L1033.7,506.4z M866.6,566.8c-8.2,0-14.6-2.7-19.2-8.1
		c-4.6-5.4-6.9-13-6.9-22.8c0-10,2.3-17.9,6.9-23.4c4.6-5.4,11-8.2,19-8.2c7.8,0,14.1,2.6,18.5,7.8c4.5,5.2,6.8,13,6.8,23.2
		c0,10.3-2.1,18.2-6.4,23.5C881.2,564.1,874.9,566.8,866.6,566.8 M867.6,485.9c-15.6,0-28,4.6-36.9,13.6c-8.8,9-13.3,21.5-13.3,37.2
		c0,14.8,4.4,26.8,13,35.5c8.6,8.7,20.4,13.1,34.9,13.1c15.1,0,27.3-4.6,36.2-13.8c8.8-9.1,13.3-21.5,13.3-36.8
		c0-15.1-4.2-27.1-12.5-35.7C894,490.3,882.4,485.9,867.6,485.9 M781,485.9c-10.6,0-19.4,2.7-26.1,8.1c-6.8,5.4-10.2,12.5-10.2,21
		c0,4.4,0.7,8.4,2.2,11.8c1.5,3.4,3.7,6.3,6.7,8.8c3,2.5,7.6,5,13.7,7.7c5.1,2.1,9,3.9,11.4,5.3c2.4,1.4,4.1,2.8,5,4.1
		c0.9,1.3,1.4,3.1,1.4,5.4c0,6.4-4.8,9.5-14.6,9.5c-3.6,0-7.8-0.8-12.3-2.3c-4.5-1.5-8.8-3.6-12.6-6.4l-0.9-0.7v21.7l0.3,0.2
		c3.2,1.5,7.2,2.7,12,3.7c4.7,1,9,1.5,12.8,1.5c11.5,0,20.8-2.7,27.6-8.1c6.8-5.4,10.3-12.7,10.3-21.5c0-6.4-1.9-11.9-5.5-16.3
		c-3.6-4.4-10-8.4-18.8-12c-7-2.8-11.5-5.2-13.4-7c-1.8-1.7-2.7-4.2-2.7-7.3c0-2.8,1.1-5,3.4-6.8c2.3-1.8,5.6-2.7,9.6-2.7
		c3.8,0,7.6,0.6,11.4,1.8c3.8,1.2,7.2,2.7,10,4.6l0.9,0.6V490l-0.4-0.2c-2.6-1.1-6-2.1-10.1-2.8C788,486.3,784.3,485.9,781,485.9
		 M685.9,566.8c-8.2,0-14.6-2.7-19.2-8.1c-4.6-5.4-6.9-13-6.9-22.8c0-10,2.3-17.9,6.9-23.4c4.5-5.4,10.9-8.2,19-8.2
		c7.8,0,14.1,2.6,18.5,7.8c4.5,5.2,6.8,13,6.8,23.2c0,10.3-2.1,18.2-6.4,23.5C700.4,564.1,694.1,566.8,685.9,566.8 M686.9,485.9
		c-15.6,0-28,4.6-36.9,13.6c-8.8,9-13.3,21.5-13.3,37.2c0,14.8,4.4,26.8,13,35.5c8.6,8.7,20.4,13.1,34.9,13.1
		c15.1,0,27.3-4.6,36.2-13.8c8.8-9.1,13.3-21.5,13.3-36.8c0-15.1-4.2-27.1-12.5-35.7C713.3,490.3,701.6,485.9,686.9,485.9
		 M602.4,504.6v-16.4h-22.3V583h22.3v-48.5c0-8.2,1.9-15,5.6-20.1c3.6-5.1,8.5-7.6,14.4-7.6c2,0,4.3,0.3,6.7,1
		c2.4,0.7,4.2,1.4,5.2,2.1l0.9,0.7V488l-0.4-0.2c-2.1-0.9-5-1.3-8.7-1.3c-5.6,0-10.6,1.8-14.9,5.3c-3.8,3.1-6.5,7.4-8.6,12.7H602.4z
		 M540.2,485.9c-10.2,0-19.3,2.2-27.1,6.5c-7.8,4.3-13.8,10.5-17.9,18.4c-4.1,7.8-6.1,17-6.1,27.2c0,9,2,17.2,6,24.4
		c4,7.3,9.6,12.9,16.7,16.9c7.1,3.9,15.3,5.9,24.4,5.9c10.6,0,19.6-2.1,26.9-6.3l0.3-0.2v-20.4l-0.9,0.7c-3.3,2.4-7,4.3-10.9,5.7
		c-3.9,1.4-7.5,2.1-10.7,2.1c-8.7,0-15.8-2.7-20.9-8.1c-5.1-5.4-7.7-13-7.7-22.5c0-9.6,2.7-17.4,8-23.1c5.3-5.7,12.3-8.6,20.9-8.6
		c7.3,0,14.5,2.5,21.2,7.4l0.9,0.7v-21.5l-0.3-0.2c-2.5-1.4-6-2.6-10.3-3.5C548.4,486.4,544.2,485.9,540.2,485.9 M473.7,488.2h-22.3
		V583h22.3C473.7,583,473.7,488.2,473.7,488.2z M462.8,447.8c-3.7,0-6.9,1.2-9.5,3.7c-2.6,2.5-4,5.6-4,9.3c0,3.6,1.3,6.7,3.9,9.1
		c2.6,2.4,5.8,3.6,9.5,3.6c3.7,0,7-1.2,9.6-3.6c2.6-2.4,4-5.5,4-9.1c0-3.6-1.3-6.7-3.9-9.2C469.9,449.1,466.7,447.8,462.8,447.8
		 M407.2,481.2V583h22.8V450.7h-31.5l-40,98.2l-38.8-98.2h-32.8V583h21.4V481.2h0.7l41,101.8h16.1l40.4-101.8H407.2L407.2,481.2z"/>
	<path class="st1" d="M104.9,511.4H0V406.5h104.9V511.4z"/>
	<path class="st2" d="M220.7,511.4H115.8V406.5h104.9L220.7,511.4L220.7,511.4z"/>
	<path class="st3" d="M104.9,627.2H0V522.4h104.9V627.2z"/>
	<path class="st4" d="M220.7,627.2H115.8V522.4h104.9L220.7,627.2L220.7,627.2z"/>
</g>
<g id="Layer_2" class="st5">
	<path id="path8" class="st6" d="M637.3,651.8c-58.1,42.8-142.3,65.7-214.9,65.7c-101.7,0-193.2-37.6-262.5-100.2
		c-5.4-4.9-0.6-11.6,6-7.8c74.7,43.5,167.2,69.6,262.6,69.6c64.4,0,135.2-13.3,200.3-41C638.6,634,646.9,644.6,637.3,651.8"/>
	<path id="path10" class="st6" d="M661.4,624.1c-7.4-9.5-49.1-4.5-67.8-2.3c-5.7,0.7-6.6-4.3-1.4-7.8c33.2-23.4,87.7-16.6,94.1-8.8
		c6.4,7.9-1.7,62.5-32.9,88.6c-4.8,4-9.4,1.9-7.2-3.4C653.1,672.9,668.9,633.7,661.4,624.1"/>
	<path id="path12" class="st7" d="M594.9,449v-22.7c0-3.4,2.6-5.7,5.7-5.7h101.7c3.3,0,5.9,2.4,5.9,5.7v19.5c0,3.3-2.8,7.5-7.7,14.3
		l-52.7,75.3c19.6-0.5,40.3,2.4,58,12.4c4,2.3,5.1,5.6,5.4,8.8v24.2c0,3.3-3.7,7.2-7.5,5.2c-31.3-16.4-72.9-18.2-107.5,0.2
		c-3.5,1.9-7.2-1.9-7.2-5.2v-23c0-3.7,0-10,3.7-15.6l61.1-87.6h-53.1C597.5,454.7,594.9,452.4,594.9,449"/>
	<path id="path14" class="st7" d="M223.8,590.8h-30.9c-3-0.2-5.3-2.4-5.5-5.3V426.7c0-3.2,2.7-5.7,6-5.7h28.9c3,0.1,5.4,2.4,5.6,5.3
		v20.8h0.6c7.5-20.1,21.7-29.4,40.7-29.4c19.4,0,31.5,9.4,40.2,29.4c7.5-20.1,24.5-29.4,42.7-29.4c13,0,27.2,5.4,35.8,17.4
		c9.8,13.4,7.8,32.8,7.8,49.8l0,100.2c0,3.2-2.7,5.7-6,5.7h-30.9c-3.1-0.2-5.6-2.7-5.6-5.7v-84.2c0-6.7,0.6-23.4-0.9-29.8
		c-2.3-10.7-9.2-13.7-18.2-13.7c-7.5,0-15.3,5-18.5,13c-3.2,8-2.9,21.4-2.9,30.4v84.2c0,3.2-2.7,5.7-6,5.7h-30.9
		c-3.1-0.2-5.6-2.7-5.6-5.7l0-84.2c0-17.7,2.9-43.8-19.1-43.8c-22.2,0-21.4,25.4-21.4,43.8v84.2
		C229.8,588.2,227.1,590.8,223.8,590.8"/>
	<path id="path16" class="st7" d="M795.8,417.6c45.9,0,70.8,39.4,70.8,89.6c0,48.4-27.5,86.9-70.8,86.9c-45.1,0-69.6-39.4-69.6-88.6
		C726.2,456.1,751,417.6,795.8,417.6 M796.1,450.1c-22.8,0-24.2,31.1-24.2,50.5c0,19.4-0.3,60.9,24,60.9c24,0,25.1-33.4,25.1-53.8
		c0-13.4-0.6-29.4-4.6-42.1C812.9,454.4,805.9,450.1,796.1,450.1"/>
	<path id="path18" class="st7" d="M926.2,590.8h-30.8c-3.1-0.2-5.6-2.7-5.6-5.7l0-158.9c0.3-2.9,2.8-5.2,6-5.2h28.7
		c2.7,0.1,4.9,2,5.5,4.4v24.3h0.6c8.7-21.7,20.8-32.1,42.2-32.1c13.9,0,27.4,5,36.1,18.7c8.1,12.7,8.1,34.1,8.1,49.4v100
		c-0.3,2.8-2.9,5-6,5h-31c-2.8-0.2-5.2-2.3-5.5-5v-86.3c0-17.4,2-42.8-19.4-42.8c-7.5,0-14.5,5-17.9,12.7
		c-4.4,9.7-4.9,19.4-4.9,30.1v85.5C932.2,588.2,929.5,590.8,926.2,590.8"/>
	<path id="path28" class="st7" d="M513.8,514.9c0,12.1,0.3,22.1-5.8,32.8c-4.9,8.7-12.8,14.1-21.4,14.1c-11.9,0-18.8-9.1-18.8-22.4
		c0-26.4,23.6-31.2,46.1-31.2L513.8,514.9 M545,590.4c-2,1.8-5,2-7.3,0.7c-10.3-8.5-12.1-12.5-17.8-20.6c-17,17.3-29,22.5-51,22.5
		c-26.1,0-46.3-16.1-46.3-48.2c0-25.1,13.6-42.2,33-50.6c16.8-7.4,40.3-8.7,58.2-10.8v-4c0-7.4,0.6-16.1-3.8-22.4
		c-3.7-5.7-11-8.1-17.4-8.1c-11.8,0-22.3,6.1-24.9,18.6c-0.5,2.8-2.6,5.5-5.4,5.7l-30-3.2c-2.5-0.6-5.4-2.6-4.6-6.5
		c6.9-36.4,39.8-47.4,69.2-47.4c15.1,0,34.7,4,46.6,15.4c15.1,14.1,13.6,32.8,13.6,53.2V533c0,14.5,6,20.9,11.7,28.7
		c2,2.8,2.4,6.1-0.1,8.2C562.5,575.2,551.2,585,545,590.4L545,590.4"/>
	<path id="path30" class="st7" d="M108.1,514.9c0,12.1,0.3,22.1-5.8,32.8c-4.9,8.7-12.7,14.1-21.4,14.1c-11.9,0-18.8-9.1-18.8-22.4
		c0-26.4,23.6-31.2,46-31.2V514.9 M139.3,590.4c-2,1.8-5,2-7.3,0.7c-10.3-8.5-12.1-12.5-17.8-20.6c-17,17.3-29,22.5-51,22.5
		c-26,0-46.3-16.1-46.3-48.2c0-25.1,13.6-42.2,33-50.6c16.8-7.4,40.3-8.7,58.2-10.8v-4c0-7.4,0.6-16.1-3.7-22.4
		c-3.8-5.7-11-8.1-17.4-8.1c-11.8,0-22.3,6.1-24.9,18.6c-0.5,2.8-2.6,5.5-5.4,5.7l-30-3.2c-2.5-0.6-5.3-2.6-4.6-6.5
		c6.9-36.4,39.8-47.4,69.2-47.4c15.1,0,34.7,4,46.6,15.4c15.1,14.1,13.6,32.8,13.6,53.2V533c0,14.5,6,20.9,11.7,28.7
		c2,2.8,2.4,6.1-0.1,8.2C156.8,575.2,145.5,585,139.3,590.4L139.3,590.4"/>
</g>
<g id="Layer_3" class="st5">
	<g transform="translate(4636.413 -2865.209)" class="st8">
		
			<linearGradient id="SVGID_1_" gradientUnits="userSpaceOnUse" x1="-16714.3535" y1="3618.8423" x2="-16714.3535" y2="3675.7314" gradientTransform="matrix(4.5091 0 0 4.5091 70858.4453 -13116.3555)">
			<stop  offset="0" style="stop-color:#196EEF"/>
			<stop  offset="0.5" style="stop-color:#186DEE"/>
			<stop  offset="1" style="stop-color:#1065E7"/>
		</linearGradient>
		<path class="st9" d="M-4475.1,3373.4h44.3v62.2c-13.8,4.4-31.3,6.9-49.4,6.9c-73.5,0-116.7-62.9-116.7-124.4
			c0-60.3,39.1-102.6,93.6-102.6c34.5,0,54.6,11.7,72.5,28v20.3l33.7-33.7c-21.3-14.4-52.1-28.1-96.2-28.1
			c-96.7,0-141,69.2-141,126.1c0,81,59,129.7,133.1,129.7c35.9,0,67.8-5.5,104.7-15.7v-64.2c0-3.3,1.4-5.5,3.6-7.5l11.6-11.6h-79
			L-4475.1,3373.4L-4475.1,3373.4z"/>
		
			<linearGradient id="SVGID_2_" gradientUnits="userSpaceOnUse" x1="-16664.0996" y1="3638.1843" x2="-16664.0996" y2="3674.9697" gradientTransform="matrix(4.5091 0 0 4.5091 70858.4453 -13116.3555)">
			<stop  offset="0" style="stop-color:#DE5744"/>
			<stop  offset="0.5" style="stop-color:#DB4632"/>
			<stop  offset="1" style="stop-color:#D13D29"/>
		</linearGradient>
		<path class="st10" d="M-4276.8,3288.9c-55.7,0-90.2,40.7-90.2,83.9c0,37.3,27.8,81.5,84.1,81.5c54.2,0,87.4-40.8,87.4-84.7
			C-4195.4,3328.6-4227.9,3288.9-4276.8,3288.9L-4276.8,3288.9L-4276.8,3288.9z M-4286,3300.7c39.3,0,56.7,51.1,56.7,87.6
			c0,54.3-40.7,55.3-45.6,55.3c-18.6,0-31.6-11.3-41.4-26c-8.6-13.6-17-38.9-17-63.6c0-24.6,8.1-36.6,20.7-45.5
			C-4302.1,3302-4292.4,3300.7-4286,3300.7L-4286,3300.7z"/>
		
			<linearGradient id="SVGID_3_" gradientUnits="userSpaceOnUse" x1="-16584.6484" y1="3638.1843" x2="-16584.6484" y2="3697.2476" gradientTransform="matrix(4.5091 0 0 4.5091 70858.4453 -13116.3555)">
			<stop  offset="0" style="stop-color:#1A6FEF"/>
			<stop  offset="0.25" style="stop-color:#1E72EF"/>
			<stop  offset="0.5" style="stop-color:#166BEC"/>
			<stop  offset="0.75" style="stop-color:#1267E9"/>
			<stop  offset="1" style="stop-color:#1063E5;stop-opacity:0.87"/>
		</linearGradient>
		<path class="st11" d="M-3912.8,3288.9c-48.6,0-74.9,30.8-74.9,65.2c0,26.2,18.7,55.7,57.4,55.7h9.8c0,0-2.7,6.5-2.7,12.7
			c0,9.2,3.3,14.4,10.3,22.4c-66.6,4.1-93.3,30.9-93.3,59.7c0,25.3,24.2,50.1,75,50.1c60.2,0,91.4-33.4,91.4-66.2
			c0-23.1-11.5-35.8-40.7-57.6c-8.6-6.7-10.2-10.9-10.2-15.9c0-7.1,4.3-11.9,5.8-13.7c2.8-2.9,7.5-6.2,9.3-7.8
			c9.8-8.3,23.6-20.6,23.6-45.1c0-16.8-7-31.3-22.9-44.8h19.5l14.6-14.6L-3912.8,3288.9L-3912.8,3288.9z M-3926.2,3299.8
			c8.8,0,16.2,3.1,24,9.6c8.6,7.8,22.4,28.7,22.4,54.6c0,27.9-21.7,35.6-33.4,35.6c-5.7,0-12.6-1.6-18.5-5.6
			c-12.9-8.4-25.8-30.7-25.8-57.3C-3957.5,3312.6-3943.2,3299.8-3926.2,3299.8z M-3906.9,3455.4c3.7,0,6.4,0.3,6.4,0.3
			s8.8,6.3,14.9,10.9c14.2,11.3,23.1,19.9,23.1,35.2c0,21.1-19.5,37.6-51.2,37.6c-34.7,0-61.3-16.2-61.3-42.6
			C-3975.1,3475-3956.9,3456.1-3906.9,3455.4z"/>
		
			<linearGradient id="SVGID_4_" gradientUnits="userSpaceOnUse" x1="-16556.3164" y1="3619.876" x2="-16556.3164" y2="3673.936" gradientTransform="matrix(4.5091 0 0 4.5091 70858.4453 -13116.3555)">
			<stop  offset="0" style="stop-color:#0AA561"/>
			<stop  offset="0.5" style="stop-color:#009B58"/>
			<stop  offset="1" style="stop-color:#00914B"/>
		</linearGradient>
		<path class="st12" d="M-3830.2,3449.5h66.8l10.2-10.2l-19.1-2.4c-5.2-0.6-8.2-5.1-8.2-9.4v-201.7c0-4,1.8-6,3.2-7.3l12-12h-56.9
			l-14.8,14.8h22.1v208.9c0,3-0.9,5-2.9,7.1L-3830.2,3449.5L-3830.2,3449.5z"/>
		
			<linearGradient id="SVGID_5_" gradientUnits="userSpaceOnUse" x1="-16530.1758" y1="3638.1843" x2="-16530.1758" y2="3674.8672" gradientTransform="matrix(4.5091 0 0 4.5091 70858.4453 -13116.3555)">
			<stop  offset="0" style="stop-color:#DE5644"/>
			<stop  offset="0.5" style="stop-color:#DA4531"/>
			<stop  offset="1" style="stop-color:#CE3A28"/>
		</linearGradient>
		<path class="st13" d="M-3673,3288.9c-37.3,0-76.9,28.4-76.9,79.4c0,42.1,28.4,86,81.5,86c13.2,0,24.1-1.7,34.3-6.4
			c11-5,21.5-13.2,29.2-23.5c-14.5,7.3-26.4,12.1-42.1,12.1c-29.9,0-58.7-21.6-68.8-61.2l105.7-42.7
			C-3616.2,3310.8-3633.4,3288.9-3673,3288.9L-3673,3288.9L-3673,3288.9z M-3679.9,3300.5c20,0,34.5,16.5,34.5,29.3
			c0,4.2-2.6,6.4-7.8,8.4l-64.9,26.3c0,0-1.8-8.2-1.8-17C-3719.9,3310.5-3693.1,3300.5-3679.9,3300.5L-3679.9,3300.5z"/>
		
			<linearGradient id="SVGID_6_" gradientUnits="userSpaceOnUse" x1="-16622.1973" y1="3638.2712" x2="-16622.1973" y2="3674.9038" gradientTransform="matrix(4.5091 0 0 4.5091 70858.4453 -13116.3555)">
			<stop  offset="0" style="stop-color:#FFC01A"/>
			<stop  offset="0.5" style="stop-color:#FFBA03"/>
			<stop  offset="1" style="stop-color:#FFB300"/>
		</linearGradient>
		<path class="st14" d="M-4087.8,3288.9c-55.7,0-90.2,40.7-90.2,83.9c0,37.3,27.8,81.5,84.1,81.5c54.2,0,87.4-40.8,87.4-84.7
			C-4006.5,3328.6-4039,3288.9-4087.8,3288.9L-4087.8,3288.9L-4087.8,3288.9z M-4097.1,3300.7c39.3,0,56.7,51.1,56.7,87.6
			c0,54.3-40.7,55.3-45.6,55.3c-18.6,0-31.6-11.3-41.4-26c-8.6-13.6-17-38.9-17-63.6c0-24.6,8.1-36.6,20.7-45.5
			C-4113.1,3302-4103.4,3300.7-4097.1,3300.7L-4097.1,3300.7z"/>
	</g>
</g>
<g id="Layer_4" class="st5">
	<path class="st15" d="M544.8,424.2c0,11.6-9.4,21-21,21s-21-9.4-21-21s9-21,21-21C535.8,403.6,544.8,412.9,544.8,424.2z
		 M458.3,466.5v5.2c0,0-10-12.9-31.3-12.9c-35.2,0-62.6,26.8-62.6,63.9c0,36.8,27.1,63.9,62.6,63.9c21.6,0,31.3-13.2,31.3-13.2v5.5
		c0,2.6,1.9,4.5,4.5,4.5H489V461.9h-26.1C460.3,461.9,458.3,464.2,458.3,466.5z M458.3,544.2c-4.8,7.1-14.5,13.2-26.1,13.2
		c-20.6,0-36.4-12.9-36.4-34.8s15.8-34.8,36.4-34.8c11.3,0,21.6,6.5,26.1,13.2V544.2z M508.3,461.9h31v121.3h-31V461.9z
		 M970.8,458.7c-21.3,0-31.3,12.9-31.3,12.9v-68.1h-31v179.6h26.1c2.6,0,4.5-2.3,4.5-4.5v-5.5c0,0,10,13.2,31.3,13.2
		c35.2,0,62.6-27.1,62.6-63.9S1005.7,458.7,970.8,458.7z M965.7,557.1c-11.9,0-21.3-6.1-26.1-13.2v-43.2
		c4.8-6.5,15.2-13.2,26.1-13.2c20.6,0,36.4,12.9,36.4,34.8C1002.1,544.2,986.3,557.1,965.7,557.1z M892.5,511.3v72.2h-31v-68.7
		c0-20-6.5-28.1-23.9-28.1c-9.4,0-19,4.8-25.2,11.9v84.5h-31V461.9H806c2.6,0,4.5,2.3,4.5,4.5v5.2c9-9.4,21-12.9,32.9-12.9
		c13.5,0,24.8,3.9,33.9,11.6C888.3,479.4,892.5,491,892.5,511.3L892.5,511.3z M706.4,458.7c-21.3,0-31.3,12.9-31.3,12.9v-68.1h-31
		v179.6h26.1c2.6,0,4.5-2.3,4.5-4.5v-5.5c0,0,10,13.2,31.3,13.2c35.2,0,62.6-27.1,62.6-63.9C768.9,485.8,741.5,458.7,706.4,458.7
		L706.4,458.7z M701.2,557.1c-11.9,0-21.3-6.1-26.1-13.2v-43.2c4.8-6.5,15.2-13.2,26.1-13.2c20.6,0,36.4,12.9,36.4,34.8
		C737.7,544.2,721.9,557.1,701.2,557.1z M617.4,458.7c9.4,0,14.2,1.6,14.2,1.6V489c0,0-25.8-8.7-41.9,9.7v84.8h-31V461.9h26.1
		c2.6,0,4.5,2.3,4.5,4.5v5.2C595.1,464.9,607.7,458.7,617.4,458.7L617.4,458.7z M295.8,572.3c-1.6-3.9-3.2-8.1-4.8-11.6
		c-2.6-5.8-5.2-11.3-7.4-16.4l-0.3-0.3c-22.3-48.4-46.1-97.4-71.3-145.8l-1-1.9c-2.6-4.8-5.2-10-7.7-15.2
		c-3.2-5.8-6.5-11.9-11.6-17.7c-10.3-12.9-25.2-20-41-20c-16.1,0-30.6,7.1-41.3,19.4c-4.8,5.8-8.4,11.9-11.6,17.7
		c-2.6,5.2-5.2,10.3-7.7,15.2l-1,1.9c-24.8,48.4-49,97.4-71.3,145.8l-0.3,0.6c-2.3,5.2-4.8,10.6-7.4,16.4c-1.6,3.5-3.2,7.4-4.8,11.6
		c-4.2,11.9-5.5,23.2-3.9,34.8C4.9,631,21,651.3,43.3,660.3c8.4,3.5,17.1,5.2,26.1,5.2c2.6,0,5.8-0.3,8.4-0.6
		c10.6-1.3,21.6-4.8,32.3-11c13.2-7.4,25.8-18.1,40-33.5c14.2,15.5,27.1,26.1,40,33.5c10.6,6.1,21.6,9.7,32.3,11
		c2.6,0.3,5.8,0.6,8.4,0.6c9,0,18.1-1.6,26.1-5.2c22.6-9,38.4-29.7,41.9-53.5C301.3,595.5,300,584.2,295.8,572.3L295.8,572.3z
		 M150.3,589c-17.4-21.9-28.7-42.6-32.6-60c-1.6-7.4-1.9-13.9-1-19.7c0.6-5.2,2.6-9.7,5.2-13.5c6.1-8.7,16.4-14.2,28.4-14.2
		c11.9,0,22.6,5.2,28.4,14.2c2.6,3.9,4.5,8.4,5.2,13.5c1,5.8,0.6,12.6-1,19.7C179,546.1,167.7,566.8,150.3,589z M279,604.2
		c-2.3,16.8-13.5,31.3-29.4,37.7c-7.7,3.2-16.1,4.2-24.5,3.2c-8.1-1-16.1-3.5-24.5-8.4c-11.6-6.5-23.2-16.4-36.8-31.3
		c21.3-26.1,34.2-50,39-71.3c2.3-10,2.6-19,1.6-27.4c-1.3-8.1-4.2-15.5-8.7-21.9c-10-14.5-26.8-22.9-45.5-22.9s-35.5,8.7-45.5,22.9
		c-4.5,6.5-7.4,13.9-8.7,21.9c-1.3,8.4-1,17.7,1.6,27.4c4.8,21.3,18.1,45.5,39,71.6c-13.2,14.8-25.2,24.8-36.8,31.3
		c-8.4,4.8-16.4,7.4-24.5,8.4c-8.7,1-17.1-0.3-24.5-3.2c-15.8-6.5-27.1-21-29.4-37.7c-1-8.1-0.3-16.1,2.9-25.2
		c1-3.2,2.6-6.5,4.2-10.3c2.3-5.2,4.8-10.6,7.4-16.1l0.3-0.6c22.3-48.1,46.1-97.1,71-144.8l1-1.9c2.6-4.8,5.2-10,7.7-14.8
		c2.6-5.2,5.5-10,9-14.2c6.8-7.7,15.8-11.9,25.8-11.9s19,4.2,25.8,11.9c3.5,4.2,6.5,9,9,14.2c2.6,4.8,5.2,10,7.7,14.8l1,1.9
		c24.5,48.1,48.4,97.1,70.6,145.1v0.3c2.6,5.2,4.8,11,7.4,16.1c1.6,3.9,3.2,7.1,4.2,10.3C279.3,587.7,280.3,595.8,279,604.2
		L279,604.2z"/>
</g>
</svg>
